<svg width="512" height="512" viewBox="0 0 512 512" xmlns="http://www.w3.org/2000/svg">
  <circle cx="256" cy="256" r="256" fill="#0056D2"/>
  
  <path d="M120 260 V400 H240 V260" fill="none" stroke="white" stroke-width="24" stroke-linecap="round"/>
  <path d="M100 260 L256 140" fill="none" stroke="white" stroke-width="24" stroke-linecap="round"/>

  <rect x="270" y="155" width="24" height="24" fill="#FF6D00"/>
  <rect x="300" y="180" width="24" height="24" fill="#FF6D00"/>
  <rect x="330" y="205" width="24" height="24" fill="#FF6D00"/>
  <rect x="360" y="230" width="24" height="24" fill="#FF6D00"/>
  
  <rect x="270" y="280" width="20" height="20" rx="4" fill="white" opacity="0.9"/>
  <rect x="310" y="280" width="20" height="20" rx="4" fill="white" opacity="0.7"/>
  <rect x="350" y="280" width="20" height="20" rx="4" fill="white" opacity="0.5"/>
  
  <rect x="270" y="320" width="20" height="20" rx="4" fill="white" opacity="0.9"/>
  <rect x="310" y="320" width="20" height="20" rx="4" fill="white" opacity="0.7"/>
  
  <rect x="270" y="360" width="20" height="20" rx="4" fill="white" opacity="0.9"/>
</svg>